<svg xmlns="http://www.w3.org/2000/svg" class="wa-svg-cloud wa-svg-cloud-2" viewBox="-4 0 40 32" x="0px" y="0px" xmlns:xml="http://www.w3.org/XML/1998/namespace" xml:space="preserve"><filter id="drop-shadow"><feGaussianBlur in="SourceAlpha" stdDeviation="1" /><feOffset dx="0" dy="0" /><feComponentTransfer><feFuncA type="linear" slope="0.2" /></feComponentTransfer><feMerge><feMergeNode /><feMergeNode in="SourceGraphic" /></feMerge></filter><path filter="url(&quot;#drop-shadow&quot;)" d="M 20.7 14.8 c 0.8 -0.7 2 -1.2 3.1 -1.2 c 1.9 0 3.6 1.3 4.2 3 c 0.3 -0.1 0.6 -0.2 1 -0.2 c 1.7 0 3 1.3 3 3 c 0 1.7 -1.3 3 -3 3 c 0 0 0 0 0 0 l 0 0 H 2.1 c -1.2 0 -2.1 -1 -2.1 -2.1 c 0 -1.2 1 -2.1 2.1 -2.1 c 0 0 0 0 0.1 0 C 2.1 17.8 2 17.4 2 17 c 0 -2.4 2 -4.4 4.4 -4.4 c 1.1 0 2.2 0.4 3 1.2 c 0.7 -2.5 2.9 -4.3 5.6 -4.3 C 18 9.5 20.5 11.8 20.7 14.8 Z" /></svg>